{
	"asset":{
		"generator":"Khronos glTF Blender I/O v4.5.48",
		"version":"2.0"
	},
	"extensionsUsed":[
		"KHR_materials_specular"
	],
	"scene":0,
	"scenes":[
		{
			"name":"Scene",
			"nodes":[
				0
			]
		}
	],
	"nodes":[
		{
			"mesh":0,
			"name":"texture_pbr_v128",
			"rotation":[
				0.70710688829422,
				0,
				0,
				0.7071066498756409
			]
		}
	],
	"materials":[
		{
			"doubleSided":true,
			"extensions":{
				"KHR_materials_specular":{
					"specularColorFactor":[
						2.0,
						2.0,
						2.0
					]
				}
			},
			"name":"Material.001",
			"normalTexture":{
				"index":0
			},
			"pbrMetallicRoughness":{
				"baseColorTexture":{
					"index":1
				},
				"metallicRoughnessTexture":{
					"index":2
				}
			}
		}
	],
	"meshes":[
		{
			"name":"texture_pbr_v128.001",
			"primitives":[
				{
					"attributes":{
						"POSITION":0,
						"NORMAL":1,
						"TEXCOORD_0":2
					},
					"indices":3,
					"material":0
				}
			]
		}
	],
	"textures":[
		{
			"sampler":0,
			"source":0
		},
		{
			"sampler":0,
			"source":1
		},
		{
			"sampler":0,
			"source":2
		}
	],
	"images":[
		{
			"mimeType":"image/png",
			"name":"texture_pbr_v128_normal",
			"uri":"texture_pbr_v128_normal.png"
		},
		{
			"mimeType":"image/png",
			"name":"texture_pbr_v128",
			"uri":"texture_pbr_v128.png"
		},
		{
			"mimeType":"image/png",
			"name":"texture_pbr_v128_metallic-texture_pbr_v128_roughness",
			"uri":"texture_pbr_v128_metallic-texture_pbr_v128_roughness.png"
		}
	],
	"accessors":[
		{
			"bufferView":0,
			"componentType":5126,
			"count":318327,
			"max":[
				0.3090589940547943,
				0.31392499804496765,
				0.512561023235321
			],
			"min":[
				-0.3090589940547943,
				-0.310696005821228,
				-0.5121560096740723
			],
			"type":"VEC3"
		},
		{
			"bufferView":1,
			"componentType":5126,
			"count":318327,
			"type":"VEC3"
		},
		{
			"bufferView":2,
			"componentType":5126,
			"count":318327,
			"type":"VEC2"
		},
		{
			"bufferView":3,
			"componentType":5125,
			"count":1499982,
			"type":"SCALAR"
		}
	],
	"bufferViews":[
		{
			"buffer":0,
			"byteLength":3819924,
			"byteOffset":0,
			"target":34962
		},
		{
			"buffer":0,
			"byteLength":3819924,
			"byteOffset":3819924,
			"target":34962
		},
		{
			"buffer":0,
			"byteLength":2546616,
			"byteOffset":7639848,
			"target":34962
		},
		{
			"buffer":0,
			"byteLength":5999928,
			"byteOffset":10186464,
			"target":34963
		}
	],
	"samplers":[
		{
			"magFilter":9729,
			"minFilter":9987
		}
	],
	"buffers":[
		{
			"byteLength":16186392,
			"uri":"owl.bin"
		}
	]
}
